# xmcd
#
# Track frame offsets: 
#        150
#        20250
#        37370
#        53142
#        70797
#        85306
#        100668
#        113486
#        128371
#        143633
#        158076
#        174043
#        195468
#        208252
#        227889
#        241627
#        256189
#        271188
#        286526
#        310722
#
# Disc length: 4378 seconds
#
# Revision: 0
# Processed by: cddbd v1.5.2PL0 Copyright (c) Steve Scherf et al.
# Submitted via: ExactAudioCopy v1.1
#
DISCID=f8111814
DTITLE=Various Artist - De Pré Historie - De Jaren '70 - De Ultieme 10 CD Col
DTITLE=lectie - 1979
DYEAR=2018
DGENRE=Top 40
TTITLE0=Kiss - I Was Made For Lovin' You
TTITLE1=Status Quo - Whatever You Want
TTITLE2=Earth and Fire - Weekend
TTITLE3=Lipps Inc. - Funkytown
TTITLE4=Anita Ward - Ring My Bell
TTITLE5=Pointer Sisters - Fire
TTITLE6=Dr. Hook - When You're In Love With A Beautiful Woman
TTITLE7=M - Pop Muzik
TTITLE8=Blondie - Heart Of Glass
TTITLE9=Ottawan - D.I.S.C.O.
TTITLE10=Eruption - One Way Ticket
TTITLE11=Earth, Wind and Fire With The Emotions - Boogie Wonderland
TTITLE12=Roxy Music - Angel Eyes
TTITLE13=Umberto Tozzi - Gloria
TTITLE14=Lou and The Hollywood Bananas - Kingston, Kingston
TTITLE15=Grand Funk Railroad - Some Kind Of Wonderful
TTITLE16=Buggles - Video Killed The Radio Star
TTITLE17=Kool and The Gang - Ladies' Night
TTITLE18=Abba - Chiquitita
TTITLE19=Peaches and Herb - Reunited
EXTD=
EXTT0=
EXTT1=
EXTT2=
EXTT3=
EXTT4=
EXTT5=
EXTT6=
EXTT7=
EXTT8=
EXTT9=
EXTT10=
EXTT11=
EXTT12=
EXTT13=
EXTT14=
EXTT15=
EXTT16=
EXTT17=
EXTT18=
EXTT19=
PLAYORDER=
